HIERARCHY
ROOT Hips
{
	OFFSET 0.000000 0.000000 0.000000
	CHANNELS 6 Xposition Yposition Zposition Xrotation Yrotation Zrotation
	JOINT LeftUpLeg_virtual
	{
		OFFSET 0.000000 0.000000 0.000000
		CHANNELS 3 Xrotation Yrotation Zrotation
		JOINT LeftUpLeg
		{
			OFFSET 15.427100 -6.655098 0.678600
			CHANNELS 3 Xrotation Yrotation Zrotation
			JOINT LeftLeg
			{
				OFFSET 4.081073 -39.591068 13.024000
				CHANNELS 3 Xrotation Yrotation Zrotation
				JOINT LeftFoot
				{
					OFFSET -4.081074 -37.707932 -15.979700
					CHANNELS 3 Xrotation Yrotation Zrotation
					JOINT LeftToeBase
					{
						OFFSET 5.346399 -15.068900 20.645000
						CHANNELS 3 Xrotation Yrotation Zrotation
						JOINT LeftToe_End
						{
							OFFSET 2.754700 0.931300 11.300900
							CHANNELS 3 Xrotation Yrotation Zrotation
							End Site
							{
								OFFSET 0 0 0
							}
						}
					}
				}
			}
		}
	}
	JOINT RightUpLeg_virtual
	{
		OFFSET 0.000000 0.000000 0.000000
		CHANNELS 3 Xrotation Yrotation Zrotation
		JOINT RightUpLeg
		{
			OFFSET -15.569500 -6.655098 0.678600
			CHANNELS 3 Xrotation Yrotation Zrotation
			JOINT RightLeg
			{
				OFFSET -4.081825 -39.591045 13.023800
				CHANNELS 3 Xrotation Yrotation Zrotation
				JOINT RightFoot
				{
					OFFSET 4.081824 -37.707954 -15.979600
					CHANNELS 3 Xrotation Yrotation Zrotation
					JOINT RightToeBase
					{
						OFFSET -5.346400 -15.068900 20.645000
						CHANNELS 3 Xrotation Yrotation Zrotation
						JOINT RightToe_End
						{
							OFFSET -2.754700 0.931300 11.300900
							CHANNELS 3 Xrotation Yrotation Zrotation
							End Site
							{
								OFFSET 0 0 0
							}
						}
					}
				}
			}
		}
	}
	JOINT Spine_virtual
	{
		OFFSET 0.000000 0.000000 0.000000
		CHANNELS 3 Xrotation Yrotation Zrotation
		JOINT Spine
		{
			OFFSET -0.279200 12.230698 -2.892100
			CHANNELS 3 Xrotation Yrotation Zrotation
			JOINT Spine1
			{
				OFFSET -0.232667 10.192268 -1.242267
				CHANNELS 3 Xrotation Yrotation Zrotation
				JOINT Spine1_split
				{
					OFFSET -0.232667 10.192268 -1.242267
					CHANNELS 3 Xrotation Yrotation Zrotation
					JOINT Spine2
					{
						OFFSET -0.232667 10.192268 -1.242267
						CHANNELS 3 Xrotation Yrotation Zrotation
						JOINT Neck_virtual
						{
							OFFSET 0.000000 0.000000 0.000000
							CHANNELS 3 Xrotation Yrotation Zrotation
							JOINT Neck
							{
								OFFSET -0.418800 17.814194 8.416900
								CHANNELS 3 Xrotation Yrotation Zrotation
								JOINT Head
								{
									OFFSET 0.000000 7.031097 3.806800
									CHANNELS 3 Xrotation Yrotation Zrotation
									JOINT HeadTop_End
									{
										OFFSET 0.000000 24.646606 12.978600
										CHANNELS 3 Xrotation Yrotation Zrotation
										End Site
										{
											OFFSET 0 0 0
										}
									}
								}
							}
						}
						JOINT LeftShoulder_virtual
						{
							OFFSET 0.000000 0.000000 0.000000
							CHANNELS 3 Xrotation Yrotation Zrotation
							JOINT LeftShoulder
							{
								OFFSET 8.476499 7.247704 -3.868750
								CHANNELS 3 Xrotation Yrotation Zrotation
								JOINT LeftShoulder_split
								{
									OFFSET 8.476499 7.247704 -3.868750
									CHANNELS 3 Xrotation Yrotation Zrotation
									JOINT LeftArm
									{
										OFFSET 9.308998 -2.777710 0.208600
										CHANNELS 3 Xrotation Yrotation Zrotation
										JOINT LeftForeArm
										{
											OFFSET 29.972298 0.000000 0.000000
											CHANNELS 3 Xrotation Yrotation Zrotation
											JOINT LeftHand
											{
												OFFSET 26.026505 0.000000 0.000000
												CHANNELS 3 Xrotation Yrotation Zrotation
												End Site
												{
													OFFSET 0 0 0
												}
											}
										}
									}
								}
							}
						}
						JOINT RightShoulder_virtual
						{
							OFFSET 0.000000 0.000000 0.000000
							CHANNELS 3 Xrotation Yrotation Zrotation
							JOINT RightShoulder
							{
								OFFSET -7.570500 7.247704 -3.868750
								CHANNELS 3 Xrotation Yrotation Zrotation
								JOINT RightShoulder_split
								{
									OFFSET -7.570500 7.247704 -3.868750
									CHANNELS 3 Xrotation Yrotation Zrotation
									JOINT RightArm
									{
										OFFSET -9.308998 -2.777710 0.208500
										CHANNELS 3 Xrotation Yrotation Zrotation
										JOINT RightForeArm
										{
											OFFSET -29.972300 0.000000 0.000000
											CHANNELS 3 Xrotation Yrotation Zrotation
											JOINT RightHand
											{
												OFFSET -26.026505 0.000000 0.000000
												CHANNELS 3 Xrotation Yrotation Zrotation
												End Site
												{
													OFFSET 0 0 0
												}
											}
										}
									}
								}
							}
						}
					}
				}
			}
		}
	}
}
MOTION
Frames: 4
Frame Time: 0.03333333
0.618228 138.579208 18.643284 0.000000 0.000000 0.000000 7.452431 -38.814053 4.750577 -76.011679 -16.904426 22.985081 74.392399 0.088156 3.946454 1.835743 4.258581 -4.388590 -7.364569 1.947558 -2.056025 0.000000 0.000000 0.000000 8.145857 -40.507123 4.590226 -113.195018 -37.935724 -3.324764 96.369284 14.308297 -7.327957 38.294535 5.181638 24.015684 9.061936 3.179693 -1.300948 0.000000 0.000000 0.000000 7.509145 -39.722461 3.423255 30.653920 -5.185849 -7.182594 11.685304 1.294923 -3.383385 0.530911 1.064269 1.134452 0.000000 0.000000 0.000000 11.655768 1.203934 -2.259361 -6.739609 18.221471 -14.615676 -26.052811 12.584302 3.117465 0.000000 0.000000 0.000000 13.054473 1.412623 -3.002732 11.757711 -10.446905 0.238843 -0.609736 -3.195678 -4.057859 -54.804116 6.200747 1.086748 47.182974 -17.672259 30.634727 0.000000 0.000000 0.000000 14.030406 1.624844 -2.542808 17.496373 22.424011 -5.766748 0.576433 4.043796 2.081299 -34.431342 -14.579430 2.914829 -50.168364 50.217228 40.547005 0.000000 0.000000 0.000000 
0.647510 138.609390 18.601915 0.000000 0.000000 0.000000 7.481287 -38.606599 4.745794 -76.094250 -16.803640 23.008194 74.374428 0.134489 3.867257 1.968424 4.286256 -4.298473 -7.370321 1.953423 -2.118111 0.000000 0.000000 0.000000 8.181081 -40.495000 4.590696 -113.301118 -37.898582 -3.327472 96.384085 14.361533 -7.408483 38.305760 5.280224 24.015316 9.040783 3.178933 -1.308640 0.000000 0.000000 0.000000 7.549325 -39.641417 3.378288 30.566514 -5.245063 -7.196950 11.736537 1.247178 -3.389295 0.519096 1.106917 0.997050 0.000000 0.000000 0.000000 11.695442 1.187502 -2.270403 -6.948964 18.310996 -14.519722 -26.045912 12.522971 3.225524 0.000000 0.000000 0.000000 13.089085 1.388055 -2.957863 11.936291 -10.804324 1.065537 -0.768929 -3.068363 -3.674744 -56.182360 5.447716 1.517013 47.135641 -17.831063 30.694897 0.000000 0.000000 0.000000 14.085789 1.558322 -2.549186 17.588408 22.109317 -6.193724 0.760424 4.205232 1.803053 -34.968489 -14.690776 2.581938 -50.359244 50.607221 40.707272 0.000000 0.000000 0.000000 
0.740850 138.618103 18.503090 0.000000 0.000000 0.000000 7.490624 -38.206927 4.649943 -76.317085 -16.765811 22.944120 74.387406 0.138357 3.829799 2.239054 4.224338 -4.130597 -7.343573 1.944397 -2.120759 0.000000 0.000000 0.000000 8.201841 -40.289766 4.496223 -113.488552 -37.847086 -3.292565 96.444955 14.432815 -7.496460 38.438061 5.449239 24.116274 8.901333 3.156700 -1.234397 0.000000 0.000000 0.000000 7.666350 -39.450121 3.325202 30.456896 -5.289304 -7.270478 11.772222 1.216947 -3.427515 0.430786 1.137438 0.956337 0.000000 0.000000 0.000000 11.775054 1.209973 -2.309542 -7.129275 18.312806 -14.329305 -26.157649 12.406430 3.406142 0.000000 0.000000 0.000000 13.133309 1.413655 -2.927854 12.226730 -11.321837 2.477535 -0.647773 -2.669179 -3.535321 -57.726102 3.961613 2.252431 47.075897 -18.010649 30.678884 0.000000 0.000000 0.000000 14.140203 1.521225 -2.595403 17.870485 21.684042 -7.108294 0.927937 4.239785 1.825319 -35.885513 -14.952648 1.770908 -51.479921 51.464157 41.915556 0.000000 0.000000 0.000000 
0.867897 138.605057 18.409773 0.000000 0.000000 0.000000 7.475531 -37.730546 4.477028 -76.651183 -16.813148 22.808978 74.439752 0.082927 3.845332 2.603426 4.072390 -3.944124 -7.302814 1.923899 -2.064703 0.000000 0.000000 0.000000 8.190415 -39.975963 4.318304 -113.746589 -37.793892 -3.246220 96.566403 14.478676 -7.574273 38.620386 5.601784 24.272537 8.760612 3.116824 -1.091349 0.000000 0.000000 0.000000 7.849701 -39.207328 3.266354 30.339564 -5.313512 -7.384985 11.804139 1.201895 -3.479687 0.313709 1.107336 0.974085 0.000000 0.000000 0.000000 11.906568 1.263589 -2.367154 -7.256057 18.244697 -14.085286 -26.328878 12.250854 3.617415 0.000000 0.000000 0.000000 13.190799 1.471068 -2.919527 12.609929 -11.957920 4.251540 -0.395136 -2.261377 -3.683407 -59.111462 2.006579 2.912794 46.941414 -17.988179 30.496262 0.000000 0.000000 0.000000 14.189376 1.516918 -2.668004 18.294090 21.243569 -8.359685 1.064596 4.171183 2.005844 -36.959544 -15.223209 0.720248 -53.188818 52.517427 43.808154 0.000000 0.000000 0.000000 
